{"title":"Everest (2015) 1080p BluRay AC3 5.1 [Kyle-E] HTD","uid":14116429,"size":3348177452,"categoryP":"video","categoryS":"hd___movies","magnet":"?xt=urn:btih:4f2b1bdb582c327db8ca46658d55bee35bee839b&amp;dn=Everest+%282015%29+1080p+BluRay+AC3+5.1+%5BKyle-E%5D+HTD&amp;tr=udp%3A%2F%2Ftracker.leechers-paradise.org%3A6969&amp;tr=udp%3A%2F%2Fzer0day.ch%3A1337&amp;tr=udp%3A%2F%2Fopen.demonii.com%3A1337&amp;tr=udp%3A%2F%2Ftracker.coppersurfer.tk%3A6969&amp;tr=udp%3A%2F%2Fexodus.desync.com%3A6969","seeders":1,"leechers":0,"uploader":"Kyle-E","files":3,"time":1459424405,"description":"Movie: Everest\r\nPG-13 | 2h 1min | Adventure, Biography, Drama | 25 September 2015 (USA)\r\nIMDb: http://www.imdb.com/title/tt2719848/\r\n\r\nStoryline:\r\nOn the morning of May 10, 1996, climbers from two commercial expeditions start their final ascent toward the summit of Mount Everest, the highest point on Earth. With little warning, a violent storm strikes the mountain, engulfing the adventurers in one of the fiercest blizzards ever encountered by man. Challenged by the harshest conditions imaginable, the teams must endure blistering winds and freezing temperatures in an epic battle to survive against nearly impossible odds. \r\n\r\nCover: https://yuq.me/users/39/159/5STrek4iKt.jpg\r\n\r\nScreenshots: https://yuq.me/users/39/159/W3kGrPfzBg.jpg | https://yuq.me/users/39/159/DCUr7VJizR.jpg | https://yuq.me/users/39/159/NZSqRCtMXk.jpg | https://yuq.me/users/39/159/LpxcoyBOPD.jpg\r\n\r\nMediaInfo:\r\nGeneral:\r\nFile size                                : 3.12 GiB\r\nDuration                                 : 2h 1mn\r\nOverall bit rate                         : 3 684 Kbps\r\nChapters:\t\t\t\t\t\t\t\t : Yes\r\nCover                                    : Yes\r\nAttachments                              : cover.jpg\r\n\r\nVideo:\r\nID                                       : 1\r\nFormat                                   : AVC\r\nFormat/Info                              : Advanced Video Codec\r\nWidth                                    : 1 920 pixels\r\nHeight                                   : 800 pixels\r\nStream size                              : 2.41 GiB (77%)\r\nWriting library                          : x264 core 148 r2597 e86f3a1\r\nEncoding settings                        : cabac=1 / ref=3 / deblock=1:0:0 / analyse=0x3:0x113 / me=hex / subme=7 / psy=1 / psy_rd=1.00:0.00 / mixed_ref=1 / me_range=16 / chroma_me=1 / trellis=1 / 8x8dct=1 / cqm=0 / deadzone=21,11 / fast_pskip=1 / chroma_qp_offset=-2 / threads=6 / lookahead_threads=1 / sliced_threads=0 / nr=0 / decimate=1 / interlaced=0 / bluray_compat=0 / constrained_intra=0 / bframes=3 / b_pyramid=2 / b_adapt=1 / b_bias=0 / direct=1 / weightb=1 / open_gop=0 / weightp=2 / keyint=250 / keyint_min=23 / scenecut=40 / intra_refresh=0 / rc_lookahead=40 / rc=crf / mbtree=1 / crf=22.0 / qcomp=0.60 / qpmin=0 / qpmax=69 / qpstep=4 / ip_ratio=1.40 / aq=1:1.00\r\n\r\nAudio #1\r\nID                                       : 2\r\nFormat                                   : AC-3\r\nFormat/Info                              : Audio Coding 3\r\nBit rate mode                            : Constant\r\nBit rate                                 : 640 Kbps\r\nChannel(s)                               : 6 channels\r\nChannel positions                        : Front: L C R, Side: L R, LFE\r\nStream size                              : 555 MiB (17%)\r\nLanguage                                 : English\r\nDefault                                  : Yes\r\nForced                                   : No\r\n\r\nAudio #2\r\nID                                       : 3\r\nFormat                                   : AC-3\r\nFormat/Info                              : Audio Coding 3\r\nBit rate mode                            : Constant\r\nBit rate                                 : 192 Kbps\r\nChannel(s)                               : 2 channels\r\nChannel positions                        : Front: L R\r\nStream size                              : 166 MiB (5%)\r\nTitle                                    : Commentary\r\nLanguage                                 : English\r\nDefault                                  : No\r\nForced                                   : No\r\n\r\nText #1\r\nID                                       : 4\r\nFormat                                   : UTF-8\r\nCodec ID                                 : S_TEXT/UTF8\r\nCodec ID/Info                            : UTF-8 Plain Text\r\nDuration                                 : 1h 50mn\r\nBit rate                                 : 59 bps\r\nCount of elements                        : 1698\r\nTitle                                    : English\r\nLanguage                                 : English\r\nDefault                                  : Yes\r\nForced                                   : No\r\n\r\nText #2\r\nID                                       : 5\r\nFormat                                   : UTF-8\r\nCodec ID                                 : S_TEXT/UTF8\r\nCodec ID/Info                            : UTF-8 Plain Text\r\nDuration                                 : 1h 50mn\r\nBit rate                                 : 64 bps\r\nCount of elements                        : 1804\r\nTitle                                    : English  (Hearing Impaired)\r\nLanguage                                 : English\r\nDefault                                  : No\r\nForced                                   : No","torrent":{"xt":"urn:btih:4f2b1bdb582c327db8ca46658d55bee35bee839b","amp;dn":"Everest+%282015%29+1080p+BluRay+AC3+5.1+%5BKyle-E%5D+HTD","amp;tr":["udp%3A%2F%2Ftracker.leechers-paradise.org%3A6969","udp%3A%2F%2Fzer0day.ch%3A1337","udp%3A%2F%2Fopen.demonii.com%3A1337","udp%3A%2F%2Ftracker.coppersurfer.tk%3A6969","udp%3A%2F%2Fexodus.desync.com%3A6969"],"infoHash":"4f2b1bdb582c327db8ca46658d55bee35bee839b","infoHashBuffer":{"type":"Buffer","data":[79,43,27,219,88,44,50,125,184,202,70,101,141,85,190,227,91,238,131,155]},"announce":[],"urlList":[]}}